<?xml version="1.0" encoding="utf-8"?>
<!-- Generator: Adobe Illustrator 22.1.0, SVG Export Plug-In . SVG Version: 6.00 Build 0)  -->
<svg version="1.1" id="Calque_1" xmlns="http://www.w3.org/2000/svg" xmlns:xlink="http://www.w3.org/1999/xlink" x="0px" y="0px"
	 viewBox="0 0 1000 1000" style="enable-background:new 0 0 1000 1000;" xml:space="preserve">
<path d="M1000,360.5v443.1c0,24.6-8.7,45.6-26.2,63.1c-17.5,17.5-38.5,26.2-63.1,26.2H89.3c-24.6,0-45.6-8.7-63.1-26.2
	C8.7,849.1,0,828.1,0,803.6V360.5c16.4,18.2,35.2,34.4,56.4,48.5C191,500.6,283.5,564.7,333.7,601.6c21.2,15.6,38.4,27.8,51.6,36.6
	c13.2,8.7,30.8,17.7,52.7,26.8c21.9,9.1,42.4,13.7,61.4,13.7h1.1c19,0,39.4-4.6,61.4-13.7c21.9-9.1,39.5-18,52.7-26.8
	c13.2-8.7,30.4-20.9,51.6-36.6c63.2-45.8,155.9-109.9,277.9-192.5C965.4,394.5,984,378.3,1000,360.5z M1000,196.4
	c0,29.4-9.1,57.5-27.3,84.3c-18.2,26.8-40.9,49.7-68.1,68.6c-139.9,97.1-226.9,157.6-261.2,181.4c-3.7,2.6-11.6,8.3-23.7,17
	c-12.1,8.7-22.1,15.8-30.1,21.2c-8,5.4-17.7,11.4-29,18.1c-11.3,6.7-22,11.7-32.1,15.1c-10,3.3-19.3,5-27.9,5h-1.1
	c-8.6,0-17.9-1.7-27.9-5c-10-3.3-20.7-8.4-32.1-15.1c-11.3-6.7-21-12.7-29-18.1c-8-5.4-18-12.5-30.1-21.2c-12.1-8.7-20-14.4-23.7-17
	c-33.9-23.8-82.6-57.8-146.2-101.8S108.6,358.3,96,349.3c-23.1-15.6-44.8-37.1-65.3-64.5S0,232.1,0,208.7c0-29,7.7-53.2,23.2-72.5
	s37.5-29,66.1-29h821.4c24.2,0,45.1,8.7,62.8,26.2C991.2,150.9,1000,171.9,1000,196.4z"/>
</svg>
